<svg width="35" height="40" viewBox="0 0 35 40" fill="none" xmlns="http://www.w3.org/2000/svg">
<path d="M33.75 31.25C30 31.25 30 17.5 30 17.5C30 11.7475 26.1088 6.915 20.82 5.46C21.085 4.945 21.25 4.37 21.25 3.75C21.25 1.67875 19.5712 0 17.5 0C15.4288 0 13.75 1.67875 13.75 3.75C13.75 4.37 13.915 4.945 14.18 5.46C8.89125 6.915 5 11.7475 5 17.5C5 17.5 5 31.25 1.25 31.25C0.56 31.25 0 31.81 0 32.5C0 33.19 0.56 33.75 1.25 33.75H12.6762C12.5725 34.1513 12.5 34.5662 12.5 35C12.5 37.7613 14.7387 40 17.5 40C20.2613 40 22.5 37.7613 22.5 35C22.5 34.5662 22.4275 34.1513 22.3237 33.75H33.75C34.44 33.75 35 33.19 35 32.5C35 31.81 34.44 31.25 33.75 31.25ZM16.25 3.75C16.25 3.06125 16.8113 2.5 17.5 2.5C18.1887 2.5 18.75 3.06125 18.75 3.75C18.75 4.43875 18.1887 5 17.5 5C16.8113 5 16.25 4.43875 16.25 3.75ZM7.5 17.5C7.5 11.9863 11.9863 7.5 17.5 7.5C23.0137 7.5 27.5 11.9863 27.5 17.5C27.5 17.6475 27.505 21.1488 27.9912 24.7125C28.0787 25.3538 28.2212 26.375 28.4812 27.5H6.5175C6.7775 26.375 6.92 25.3538 7.0075 24.7125C7.495 21.1488 7.5 17.6475 7.5 17.5ZM17.5 37.5C16.1212 37.5 15 36.3788 15 35C15 34.83 15.0313 34.6325 15.0975 34.3762L15.5825 32.5H19.4163L19.9025 34.3762C19.9688 34.6325 20 34.83 20 35C20 36.3788 18.8788 37.5 17.5 37.5ZM5.1225 31.25C5.5775 30.4838 5.9175 29.6137 6.1825 28.75H28.8175C29.0825 29.6137 29.4225 30.4838 29.8775 31.25H5.1225Z" fill="white"/>
</svg>
