<?xml version="1.0" encoding="UTF-8" standalone="no"?>
<!-- Created with Inkscape (http://www.inkscape.org/) -->

<svg
   width="132.17336mm"
   height="68.994278mm"
   viewBox="0 0 132.17336 68.994278"
   version="1.1"
   id="svg1"
   xmlns="http://www.w3.org/2000/svg"
   xmlns:svg="http://www.w3.org/2000/svg">
  <defs
     id="defs1" />
  <g
     id="layer1"
     transform="translate(-38.629168,-114.03539)">
    <path
       style="fill:#0e2d59"
       d="m 41.534177,182.6276 c -0.985681,-0.43005 -2.43171,-2.0408 -2.703194,-3.01112 -0.111237,-0.39758 -0.202054,-14.47459 -0.201815,-31.28224 l 4.35e-4,-30.55937 0.65863,-1.15004 c 0.405735,-0.70846 1.116895,-1.41921 1.85211,-1.85103 l 1.193479,-0.70098 61.743728,-0.0331 c 44.47347,-0.0238 62.04995,0.0489 62.83854,0.26016 1.60151,0.42903 3.20782,2.19471 3.58133,3.93666 0.40762,1.90099 0.40633,59.50473 -0.001,60.99693 -0.40449,1.48049 -1.44057,2.74845 -2.72,3.32873 -1.05385,0.47797 -3.09899,0.49264 -63.26614,0.45391 -50.798736,-0.033 -62.323233,-0.10377 -62.975743,-0.38849 z m 44.630047,-22.54371 c 2.307026,-1.07827 3.744786,-2.42326 4.730833,-4.42558 1.549322,-3.14616 1.545802,-6.68319 -0.0098,-9.84547 -1.907547,-3.87771 -6.35132,-5.9208 -11.65245,-5.35741 -3.691923,0.39238 -6.95006,2.61123 -8.4117,5.72852 -0.637281,1.35916 -0.706511,1.80493 -0.70655,4.54951 -4e-5,2.82643 0.05486,3.15455 0.772309,4.61623 1.303807,2.65627 3.510609,4.46956 6.503592,5.34389 0.751001,0.21939 2.268891,0.32141 4.110907,0.27629 2.624913,-0.0643 3.096542,-0.15392 4.662864,-0.88598 z m -6.789327,-4.26268 c -2.203393,-0.78274 -3.374926,-2.34667 -3.525105,-4.7058 -0.20107,-3.15858 1.597121,-5.36663 4.56986,-5.61145 3.458337,-0.28482 5.7538,1.8169 5.737316,5.25308 -0.01453,3.0305 -1.788344,4.97028 -4.713919,5.15499 -0.846444,0.0534 -1.777113,0.0126 -2.068152,-0.0908 z m 29.561523,4.35652 c 2.59378,-1.23743 3.88403,-3.55361 3.40523,-6.11289 -0.26324,-1.40704 -0.61546,-2.01506 -1.73931,-3.00247 -1.37707,-1.20987 -2.20821,-1.5707 -5.62261,-2.44091 -3.33142,-0.84906 -4.04118,-1.26652 -4.04116,-2.37694 1e-5,-0.98916 0.58407,-1.38818 2.19888,-1.50224 1.67041,-0.11799 2.55961,0.29694 3.09279,1.4432 l 0.39687,0.85319 2.74681,0.008 2.74682,0.008 -0.1422,-1.06039 c -0.32304,-2.40885 -2.13797,-4.3737 -4.76771,-5.16154 -1.63498,-0.48983 -5.4989,-0.55596 -7.11477,-0.12178 -2.441002,0.65589 -3.828787,1.7145 -4.568783,3.48508 -0.812887,1.94499 -0.469906,3.99276 0.936521,5.59136 1.21054,1.37597 2.618561,2.01881 6.182812,2.82283 2.06356,0.4655 2.79431,0.75445 3.37342,1.33391 0.89732,0.89783 0.90893,1.08289 0.12508,1.99371 -0.53204,0.61822 -0.8136,0.71354 -2.10543,0.71281 -1.73509,-9.9e-4 -2.75925,-0.54407 -3.19284,-1.69303 l -0.28897,-0.76581 -2.886235,-0.002 -2.88622,-0.002 0.175154,1.12458 c 0.270256,1.73509 1.423452,3.38195 3.053178,4.36018 1.923444,1.15454 3.076823,1.3855 6.496493,1.30095 2.5367,-0.0628 3.10506,-0.16482 4.42618,-0.7951 z m 33.41979,0.51031 c 0.86732,-0.22247 2.1464,-0.75502 2.8424,-1.18346 l 1.26543,-0.77896 0.25592,0.67328 c 0.14075,0.3703 0.25592,0.78459 0.25591,0.92064 0,0.13605 1.01903,0.24794 2.26451,0.24865 l 2.26451,0.001 -0.0816,-7.20994 -0.0816,-7.20994 -0.7106,-1.34715 c -1.31927,-2.50106 -3.64955,-3.96925 -6.82994,-4.30317 -4.00192,-0.42018 -7.38091,0.58185 -9.12147,2.70493 -0.80354,0.98013 -1.72653,2.92051 -1.72654,3.62962 -1e-5,0.12723 1.29579,0.23206 2.87955,0.23296 2.63232,0.001 2.89114,-0.0427 3.01447,-0.51416 0.22058,-0.84331 1.74855,-1.59781 3.23412,-1.59696 2.16808,0.001 3.57187,1.19055 3.57184,3.02615 -1e-5,0.60873 -0.0121,0.6107 -4.45894,0.72386 -4.23251,0.1077 -4.53615,0.1512 -5.97948,0.85653 -2.5548,1.24848 -3.75041,3.86543 -3.06726,6.71366 0.89508,3.73185 5.35176,5.658 10.20876,4.41217 z m -2.12716,-4.01364 c -1.83755,-0.38226 -2.72335,-1.32633 -2.41118,-2.56982 0.28776,-1.14626 1.36597,-1.47963 4.77934,-1.47768 2.58344,0.001 3.05585,0.0651 3.05585,0.41175 -2e-5,1.15807 -1.7939,3.16373 -3.06315,3.42479 -1.31678,0.27081 -1.84585,0.31809 -2.36086,0.21096 z m -86.91563,0.30169 5.1e-5,-3.53736 3.505731,-0.12946 c 2.728671,-0.10077 3.836779,-0.25631 4.999265,-0.70171 2.969117,-1.13764 4.906232,-3.11395 5.688214,-5.80329 0.581046,-1.9983 0.386067,-5.26237 -0.425567,-7.12422 -0.77868,-1.78626 -2.941504,-3.78981 -4.97087,-4.60481 -1.425236,-0.57238 -1.947155,-0.61629 -8.333481,-0.70115 l -6.81302,-0.0905 -1.87e-4,13.11313 -1.86e-4,13.11314 3.175,0.002 3.175,0.002 z m 1.87e-4,-13.12672 6.1e-5,-4.29802 2.711978,0.11117 c 4.137924,0.16961 5.488109,1.19967 5.488067,4.18686 -4.2e-5,2.97587 -1.333368,3.99055 -5.488185,4.17659 l -2.711982,0.12143 z m 75.935213,14.22279 3e-5,-2.48463 -1.98346,-0.10129 c -1.74126,-0.0889 -2.0724,-0.19023 -2.71196,-0.82976 -0.7229,-0.72287 -0.72921,-0.75996 -0.81835,-4.82401 l -0.0898,-4.09555 2.66958,0.002 2.66958,0.002 4e-5,-2.51354 3e-5,-2.51354 -2.64583,-0.002 -2.64584,-0.002 4e-5,-2.52384 3e-5,-2.52385 -2.3151,0.0751 -2.31511,0.0751 -0.2057,1.71967 c -0.30323,2.53491 -0.75373,3.01206 -2.99606,3.17329 l -1.82538,0.13125 -0.0761,2.44736 -0.0761,2.44734 1.99429,0.001 1.99432,0.001 -6e-5,4.4499 c -8e-5,5.45086 0.2968,6.70901 1.98064,8.39384 1.51172,1.5126 2.92004,1.93377 6.55201,1.95937 l 2.84427,0.02 z m 33.33766,-11.38698 1.9e-4,-13.89062 -3.04271,-0.002 -3.04269,-0.002 -1.9e-4,13.89062 -2e-4,13.89063 3.04269,0.002 3.04271,0.002 z"
       id="path1" />
  </g>
</svg>
